<svg id="Capa_1" enable-background="new 0 0 512 512" height="512" viewBox="0 0 512 512" width="512" xmlns="http://www.w3.org/2000/svg" style="fill:#fff"><g><path d="m504.48 62.319h-373.024c-4.154 0-7.52 3.367-7.52 7.52s3.367 7.52 7.52 7.52h365.504v249.027h-114.173c-4.154 0-7.52 3.367-7.52 7.52s3.367 7.52 7.52 7.52h114.173v22.234h-263.232c-4.154 0-7.52 3.367-7.52 7.52s3.366 7.52 7.52 7.52h124.799l76.604 66.01c6.535 5.631 16.271 6.546 23.748 2.247 6.801-3.91 10.842-11.56 10.272-19.38-.337-4.622-2.265-9.054-5.406-12.46l-33.575-36.417h74.309c4.154 0 7.52-3.367 7.52-7.52v-301.341c.001-4.153-3.365-7.52-7.519-7.52zm-51.791 362.993c1.738 1.886 1.957 4.795.52 6.916-1.837 2.712-5.783 3.221-8.26 1.088l-63.382-54.616h28.147z"/><path d="m203.647 363.66h-188.607v-22.234h337.666c4.154 0 7.52-3.367 7.52-7.52s-3.366-7.52-7.52-7.52h-337.666v-249.027h86.335c4.154 0 7.52-3.367 7.52-7.52s-3.367-7.52-7.52-7.52h-93.855c-4.154 0-7.52 3.367-7.52 7.52v301.342c0 4.153 3.366 7.52 7.52 7.52h74.309l-33.575 36.417c-5.516 5.981-6.987 14.89-3.694 22.33 3.338 7.542 11.079 12.423 19.323 12.228 4.742-.112 9.39-1.865 12.987-4.965l76.605-66.01h50.174c4.154 0 7.52-3.367 7.52-7.52-.002-4.154-3.368-7.521-7.522-7.521zm-136.596 69.657c-2.478 2.134-6.422 1.624-8.26-1.088-1.438-2.121-1.219-5.03.52-6.916l42.975-46.612h28.148z"/><path d="m174.203 157.069c-4.154 0-7.52 3.367-7.52 7.52v91.779c0 4.153 3.367 7.52 7.52 7.52 4.154 0 7.52-3.367 7.52-7.52v-28.183l8.85-11.13 25.643 43.155c2.232 3.759 7.351 4.803 10.891 2.238 3.103-2.249 3.995-6.63 2.039-9.92l-28.561-48.065 27.982-35.193c2.585-3.251 2.046-7.981-1.205-10.566-3.252-2.586-7.983-2.045-10.566 1.206l-35.072 44.11v-39.43c-.001-4.154-3.367-7.521-7.521-7.521z"/><path d="m132.527 157.323c-3.289-.878-6.759.564-8.459 3.515l-37.285 64.8c-1.339 2.327-1.336 5.191.009 7.515 1.343 2.324 3.825 3.755 6.51 3.755h29.765v19.459c0 4.153 3.367 7.52 7.52 7.52 4.154 0 7.52-3.367 7.52-7.52v-19.459h9.23c4.154 0 7.52-3.367 7.52-7.52s-3.367-7.52-7.52-7.52h-9.23v-57.28c0-3.405-2.289-6.386-5.58-7.265zm-9.461 64.545h-16.761l16.761-29.131z"/><path d="m360.337 151.697h-96.319c-9.078 0-16.464 7.386-16.464 16.464v84.635c0 9.078 7.386 16.464 16.464 16.464h96.319c9.078 0 16.464-7.386 16.464-16.464v-16.966l22.575 15.514c5.683 3.904 13.321 3.985 19.093.214 4.804-3.138 7.749-8.6 7.749-14.337v-53.487c0-6.382-3.508-12.193-9.156-15.165s-12.423-2.573-17.685 1.042l-22.575 15.514v-16.965c-.001-9.077-7.387-16.463-16.465-16.463zm1.424 47.722v22.118 31.258c0 .785-.638 1.423-1.424 1.423h-96.319c-.785 0-1.424-.638-1.424-1.423v-84.635c0-.785.638-1.423 1.424-1.423h96.319c.785 0 1.424.638 1.424 1.423zm46.135-17.411c1.383-.949 3.282.062 3.282 1.727v53.487c0 1.665-1.9 2.677-3.282 1.727l-31.094-21.368v-14.204z"/></g></svg>