<svg id="_x31_" enable-background="new 0 0 24 24" height="512" viewBox="0 0 24 24" width="512" xmlns="http://www.w3.org/2000/svg"><g><path d="m11.5 16h-2c-.276 0-.5-.224-.5-.5v-7c0-.276.224-.5.5-.5h2c1.378 0 2.5 1.121 2.5 2.5v3c0 1.379-1.122 2.5-2.5 2.5zm-1.5-1h1.5c.827 0 1.5-.673 1.5-1.5v-3c0-.827-.673-1.5-1.5-1.5h-1.5z" style="fill:#fff"/></g><g><path d="m16.5 16c-.276 0-.5-.224-.5-.5v-7c0-.276.224-.5.5-.5h2c1.378 0 2.5 1.121 2.5 2.5s-1.122 2.5-2.5 2.5h-1.5v2.5c0 .276-.224.5-.5.5zm.5-4h1.5c.827 0 1.5-.673 1.5-1.5s-.673-1.5-1.5-1.5h-1.5z" style="fill:#fff"/></g><g><path d="m3.5 16c-.276 0-.5-.224-.5-.5v-7c0-.276.224-.5.5-.5s.5.224.5.5v7c0 .276-.224.5-.5.5z" style="fill:#fff"/></g><g><path d="m6.5 16c-.276 0-.5-.224-.5-.5v-7c0-.276.224-.5.5-.5s.5.224.5.5v7c0 .276-.224.5-.5.5z" style="fill:#fff"/></g><g><path d="m6.5 13h-3c-.276 0-.5-.224-.5-.5s.224-.5.5-.5h3c.276 0 .5.224.5.5s-.224.5-.5.5z" style="fill:#fff"/></g><g><path d="m20.5 16c-.162 0-.32-.078-.417-.223l-2-3c-.153-.229-.091-.54.139-.693.23-.152.54-.092.693.139l2 3c.153.229.091.54-.139.693-.084.057-.18.084-.276.084z" style="fill:#fff"/></g><g><path d="m21.5 21h-19c-1.378 0-2.5-1.121-2.5-2.5v-13c0-1.379 1.122-2.5 2.5-2.5h19c1.378 0 2.5 1.121 2.5 2.5v13c0 1.379-1.122 2.5-2.5 2.5zm-19-17c-.827 0-1.5.673-1.5 1.5v13c0 .827.673 1.5 1.5 1.5h19c.827 0 1.5-.673 1.5-1.5v-13c0-.827-.673-1.5-1.5-1.5z" style="fill:#fff"/></g></svg>