<svg id="Capa_1" enable-background="new 0 0 512 512" height="512" viewBox="0 0 512 512" width="512" xmlns="http://www.w3.org/2000/svg"><g><path d="m287.819 287.82c17.546-17.545 17.546-46.094 0-63.64-17.545-17.546-46.093-17.545-63.64 0-17.544 17.545-17.544 46.094 0 63.64 17.546 17.544 46.095 17.546 63.64 0zm-42.426-42.426c5.847-5.847 15.364-5.85 21.213 0 5.841 5.841 5.841 15.373 0 21.214-5.849 5.848-15.364 5.848-21.213 0-5.848-5.85-5.848-15.366 0-21.214z"/><path d="m256 0c-140.959 0-256 115.05-256 256 0 140.959 115.05 256 256 256 140.959 0 256-115.049 256-256 0-140.959-115.049-256-256-256zm226 256c0 37.134-9.006 72.202-24.942 103.142l-104.233-62.54c15.938-38.144 8.416-83.853-22.579-114.848s-76.703-38.517-114.848-22.579l-62.54-104.232c30.94-15.937 66.008-24.943 103.142-24.943 124.617 0 226 101.383 226 226zm-279.033-53.033c29.242-29.241 76.823-29.244 106.066 0 29.242 29.243 29.242 76.824 0 106.066s-76.823 29.242-106.066 0c-29.242-29.242-29.242-76.824 0-106.066zm-75.802-132.538 62.502 104.171c-2.729 2.227-5.371 4.611-7.914 7.154s-4.927 5.185-7.154 7.914l-104.17-62.503c15.394-22.106 34.63-41.342 56.736-56.736zm-97.165 185.571c0-37.134 9.006-72.202 24.943-103.142l104.232 62.54c-15.938 38.144-8.416 83.853 22.579 114.848 30.899 30.899 76.557 38.578 114.849 22.579l62.539 104.233c-30.94 15.936-66.008 24.942-103.142 24.942-124.617 0-226-101.383-226-226zm354.835 185.571-62.502-104.171c2.729-2.227 5.371-4.611 7.913-7.154s4.927-5.185 7.154-7.913l104.171 62.503c-15.394 22.105-34.63 41.341-56.736 56.735z"/></g></svg>