<svg id="Capa_1" enable-background="new 0 0 511.362 511.362" height="512" viewBox="0 0 511.362 511.362" width="512" xmlns="http://www.w3.org/2000/svg"><g><g><path d="m231.492 427.621c-3.661 0-6.865-2.684-7.412-6.414-7.346-50.146-32.586-96.245-71.071-129.808-38.859-33.888-88.611-52.551-140.093-52.551-1.533 0-3.213.035-5.135.107-4.138.111-7.621-3.075-7.775-7.214-.155-4.14 3.075-7.621 7.214-7.776 2.111-.079 3.975-.117 5.697-.117 55.106 0 108.36 19.976 149.951 56.246 41.18 35.912 68.19 85.255 76.054 138.938.6 4.099-2.235 7.907-6.334 8.508-.368.054-.735.081-1.096.081z"/></g><g><path d="m184.867 427.621c-3.542 0-6.691-2.518-7.364-6.125-14.776-79.179-83.994-136.647-164.585-136.647-1.607 0-3.291.048-5.004.142-4.121.233-7.673-2.94-7.9-7.076-.228-4.136 2.941-7.674 7.077-7.9 1.986-.109 3.947-.165 5.828-.165 87.812 0 163.231 62.62 179.331 148.896.76 4.072-1.925 7.989-5.997 8.749-.467.084-.93.126-1.386.126z"/></g><g><path d="m137.784 427.621c-3.339 0-6.385-2.247-7.257-5.63-13.83-53.664-62.192-91.144-117.609-91.144-1.523 0-3.082.083-4.63.246-4.114.431-7.811-2.554-8.245-6.674-.434-4.119 2.554-7.811 6.673-8.244 2.069-.218 4.155-.328 6.202-.328 62.262 0 116.598 42.108 132.135 102.399 1.034 4.012-1.38 8.102-5.391 9.135-.629.163-1.259.24-1.878.24z"/></g><g><path d="m7.501 208.944c-4.142 0-7.5-3.357-7.5-7.5v-93.114c0-13.559 11.03-24.589 24.588-24.589h44.623c4.142 0 7.5 3.357 7.5 7.5s-3.358 7.5-7.5 7.5h-44.623c-5.287 0-9.588 4.302-9.588 9.589v93.114c0 4.142-3.358 7.5-7.5 7.5z"/></g><g><path d="m486.774 427.62h-224.953c-4.142 0-7.5-3.357-7.5-7.5s3.358-7.5 7.5-7.5h224.953c5.287 0 9.588-4.302 9.588-9.589v-294.702c0-5.287-4.301-9.589-9.588-9.589h-385.599c-4.142 0-7.5-3.357-7.5-7.5s3.358-7.5 7.5-7.5h385.599c13.558 0 24.588 11.03 24.588 24.589v294.701c0 13.559-11.03 24.59-24.588 24.59z"/></g><g><path d="m37.501 210.073c-4.142 0-7.5-3.357-7.5-7.5v-81.332c0-4.143 3.358-7.5 7.5-7.5h371.324c4.142 0 7.5 3.357 7.5 7.5s-3.358 7.5-7.5 7.5h-363.824v73.832c0 4.142-3.358 7.5-7.5 7.5z"/></g><g><path d="m473.862 397.619h-217.842c-4.142 0-7.5-3.357-7.5-7.5s3.358-7.5 7.5-7.5h210.342v-27.308c0-4.143 3.358-7.5 7.5-7.5s7.5 3.357 7.5 7.5v34.808c0 4.142-3.358 7.5-7.5 7.5z"/></g><g><path d="m473.862 330.848c-4.142 0-7.5-3.357-7.5-7.5v-194.607h-25.574c-4.142 0-7.5-3.357-7.5-7.5s3.358-7.5 7.5-7.5h33.074c4.142 0 7.5 3.357 7.5 7.5v202.107c0 4.143-3.358 7.5-7.5 7.5z"/></g><g><path d="m91.109 427.62h-75.862c-8.407 0-15.247-6.84-15.247-15.247v-43.024c0-4.143 3.358-7.5 7.5-7.5h10.833c35.497 0 67.572 22.378 79.815 55.684.846 2.301.514 4.87-.889 6.88s-3.699 3.207-6.15 3.207zm-76.108-50.772v35.524c0 .137.111.247.247.247h64.167c-12.249-21.765-35.594-35.771-61.081-35.771z"/></g></g></svg>