<svg width="14" height="15" viewBox="0 0 14 15" fill="none" xmlns="http://www.w3.org/2000/svg">
<path fill-rule="evenodd" clip-rule="evenodd" d="M10.9337 9.13483L10.3218 8.15859H8.53659L9.14917 7.18029H9.71361L9.03171 6.09171L7.12907 9.13483H2.05356L3.276 7.18029H2.37829L2.98849 6.20234H6.91122L6.30068 7.18029H4.4298L3.81824 8.15859H6.5858L9.03068 4.24576L12.0864 9.13483H10.9337ZM4.21093 4.24576H8.23507L7.62351 5.22405H3.59902L4.21059 4.24576H4.21093ZM7 0C3.13395 0 0 3.13429 0 7.00034C0 10.8671 3.13395 14 7 14C10.8654 14 14 10.8671 14 7.00034C14 3.13429 10.8654 0 7 0Z" fill="#FF4747"/>
</svg>
