<svg width="14" height="15" viewBox="0 0 14 15" fill="none" xmlns="http://www.w3.org/2000/svg">
<path fill-rule="evenodd" clip-rule="evenodd" d="M2.13684 0.00313799C2.82622 -0.0205814 3.51363 0.0903467 4.16109 0.329791H4.2413V0.349857H4.30157V0.370389H4.36138V0.390455H4.42166V0.410522H4.5218V0.430587H4.58208V0.45112H4.64235V0.469785H4.70216V0.489851L4.82271 0.510383V0.530449H4.86258V0.550516H4.92285V0.571048H4.96087V0.591114L5.08142 0.611179V0.631712H5.12129V0.651777L5.24137 0.671843V0.69191H5.28542V0.712442H5.34569V0.732508H5.38556V0.752573L5.48571 0.773106V0.793171H5.54598V0.813237H5.58586V0.83377H5.64613V0.853836H5.686V0.873902H5.74628V0.893967L5.82649 0.9145V0.936432H5.88676V0.956498H5.92663V0.977031L6.04718 1.01716V1.0377H6.10699V1.05776H6.14733V1.07643L6.26741 1.11702V1.13709H6.32768V1.15716H6.36756V1.17769H6.40789V1.19776H6.44452V1.21642H6.50479V1.23695H6.54466V1.25702H6.60494V1.27708L6.72502 1.31768V1.33775H6.76907V1.35781L6.84928 1.37835V1.39841H6.90816V1.41848H6.9485V1.43901L7.0287 1.45908V1.47914H7.06858V1.49968H7.10892V1.51974H7.14879V1.54307H7.18634V1.56361H7.22622V1.58367H7.26609V1.60374H7.30643V1.6238H7.3463L7.38664 1.6644H7.42651L7.44691 1.705H7.48678L7.52666 1.74513H7.56699V1.76566H7.60687V1.78573H7.64998V1.8058H7.68986V1.82306H7.73019V1.84359L7.8104 1.86366C7.8169 1.87719 7.82339 1.89073 7.83034 1.90426H7.87021L7.91055 1.94439H7.95042V1.96492H7.99076V1.98499H8.03063V2.00505H8.07097V2.02559H8.11084L8.15071 2.06572H8.19105L8.21099 2.10632L8.33154 2.14645C8.33803 2.15998 8.34452 2.17351 8.35147 2.18705L8.47155 2.22765C8.47851 2.24071 8.485 2.25424 8.49149 2.26778L8.61204 2.30837L8.63197 2.34851L8.75206 2.38911L8.77246 2.4297H8.80908V2.44977H8.84896L8.86936 2.49037L8.98944 2.5305V2.55057L9.04971 2.5711L9.06965 2.61123L9.14986 2.63176C9.15635 2.64529 9.16331 2.65836 9.1698 2.67189L9.25001 2.69243L9.26994 2.73256H9.31028V2.75309H9.35015V2.77316L9.41043 2.79322L9.43036 2.83382L9.51057 2.85389L9.53051 2.89448L9.61072 2.91455C9.61767 2.92808 9.62416 2.94162 9.63065 2.95515L9.71087 2.97521L9.7308 3.01535H9.77114L9.79107 3.05594H9.83141V3.07601L9.89122 3.09654L9.91162 3.13667H9.9515L9.97143 3.17727H10.0118C10.0183 3.1908 10.0247 3.20434 10.0317 3.21787H10.0716C10.0785 3.23094 10.085 3.24447 10.092 3.258H10.1319L10.1518 3.2986H10.1921C10.1986 3.31213 10.2056 3.3252 10.2121 3.33873H10.2519V3.35927L10.3122 3.37933L10.3321 3.41993H10.3725L10.3924 3.46006H10.4323V3.48013L10.4926 3.50066L10.5125 3.54079H10.5528L10.5927 3.60145H10.633L10.653 3.64205H10.6929V3.66212L10.7531 3.68265C10.7601 3.69572 10.7666 3.70925 10.7731 3.72278H10.8134L10.8333 3.76338L10.8936 3.78345L10.9335 3.84411H10.9738C10.9803 3.85764 10.9868 3.87118 10.9938 3.88471H11.0336L11.074 3.94491H11.1138L11.1542 4.00557H11.194L11.2344 4.06624H11.2743L11.3345 4.14743H11.3744L11.4347 4.22816L11.495 4.24823C11.5014 4.26176 11.5079 4.27529 11.5149 4.28883H11.5548L11.615 4.36956H11.6549L11.7152 4.45029H11.7551L11.8153 4.53102H11.8557L11.9155 4.61221H11.9558L12.036 4.71301H12.0759L12.176 4.83434H12.2164L12.3365 4.97433H12.3768L12.5368 5.15632H12.5771L12.7574 5.35838L13.1381 5.7219V5.7625L13.2985 5.90249V5.94309L13.3384 5.96316V5.98322L13.3987 6.02382V6.06955L13.4589 6.11015V6.15075L13.5192 6.19088V6.23148L13.579 6.27208V6.31221L13.6194 6.33227C13.6258 6.35281 13.6323 6.37287 13.6393 6.39294H13.6592V6.43354L13.6996 6.4536V6.4942H13.7195V6.53433L13.7594 6.55487C13.7663 6.58193 13.7728 6.60853 13.7793 6.6356H13.7997V6.67619H13.8196V6.71632H13.8396V6.75692H13.8595L13.8999 6.87825H13.9198C13.9263 6.91838 13.9332 6.95898 13.9397 6.99958H13.9601C13.9666 7.05978 13.9731 7.12044 13.9801 7.18111H14V7.48443H13.9801V7.58522H13.9601V7.66642C13.8931 7.8145 13.8261 7.96258 13.7594 8.11067L13.7195 8.1312C13.7125 8.1578 13.7061 8.18486 13.6996 8.21193H13.6792C13.6727 8.23199 13.6662 8.25206 13.6592 8.27259L13.6194 8.29266V8.33326L13.579 8.35332V8.39392L13.5391 8.41399V8.45412L13.4988 8.47465C13.4923 8.49472 13.4854 8.51478 13.4789 8.53532L13.3987 8.59598V8.63611L13.3384 8.67671V8.69678L13.2985 8.71684V8.75744L13.1381 8.89743V8.93803L12.9378 9.12002L12.5771 9.50361H12.5368L12.3768 9.6856H12.3365V9.70567L12.2762 9.74626L12.2164 9.827H12.176L12.0759 9.94832H12.036L12.0156 9.98892H11.9957L11.9558 10.0496H11.9155L11.8557 10.1303H11.8153L11.7551 10.211H11.7152L11.6549 10.2918H11.615L11.5548 10.3725H11.5149L11.4746 10.4332H11.4347C11.4277 10.4467 11.4212 10.4602 11.4147 10.4738H11.3943C11.3879 10.4873 11.3814 10.5008 11.3744 10.5144H11.3345C11.3141 10.541 11.2942 10.568 11.2743 10.5951H11.2344L11.194 10.6558H11.1542L11.1138 10.7164H11.074L11.0336 10.7766H10.9938C10.9868 10.7902 10.9803 10.8037 10.9738 10.8172H10.9335L10.8955 10.876H10.8551L10.8352 10.9166H10.7953L10.755 10.9773H10.7151C10.7082 10.9903 10.7017 11.0039 10.6947 11.0174H10.6548V11.0375L10.5946 11.058L10.5746 11.0981H10.5348L10.4944 11.1588H10.4545L10.4341 11.1994L10.3743 11.2195V11.24H10.334L10.3141 11.2801H10.2742L10.2538 11.3207H10.2139C10.2074 11.3343 10.2005 11.3473 10.194 11.3609H10.1536L10.1337 11.4015H10.0938L10.0734 11.4421H10.0336C10.0266 11.4551 10.0201 11.4687 10.0136 11.4822H9.97328L9.95335 11.5228H9.91348C9.90652 11.5363 9.90003 11.5499 9.89308 11.5629H9.8532C9.84625 11.5765 9.83976 11.59 9.83327 11.6035H9.79293L9.77299 11.6441H9.73266L9.71272 11.6843L9.63251 11.7048L9.61257 11.7449L9.53236 11.765L9.51243 11.8056H9.47255V11.8256H9.43222V11.8462L9.37194 11.8662C9.36545 11.8798 9.35896 11.8933 9.35201 11.9068H9.31213V11.9269H9.27273L9.25279 11.967L9.17258 11.9876L9.15264 12.0277L9.07243 12.0482L9.0525 12.0884L8.97229 12.1089L8.95235 12.149L8.87214 12.1696C8.86518 12.1826 8.85869 12.1962 8.85174 12.2097L8.73166 12.2503C8.72517 12.2638 8.71821 12.2769 8.71172 12.2904L8.59117 12.331C8.58468 12.3446 8.57819 12.3581 8.57124 12.3716L8.49103 12.3917C8.48454 12.4052 8.47805 12.4188 8.47109 12.4318L8.35101 12.4724C8.34405 12.486 8.33756 12.4995 8.33107 12.513H8.29074L8.25086 12.5531H8.21053V12.5737H8.17065L8.15025 12.6138H8.09044L8.07051 12.6544H8.03017L7.9903 12.6945H7.94996V12.7151H7.91009L7.86975 12.7552H7.82988C7.82292 12.7687 7.81643 12.7823 7.80994 12.7958L7.72973 12.8159L7.68939 12.8565H7.64998V12.8765H7.60965V12.8966H7.56978V12.9171H7.52944V12.9372L7.44969 12.9573L7.40935 12.9979H7.36948L7.34908 13.0385H7.30921L7.26887 13.0786H7.229V13.0991H7.18634V13.1192H7.14601V13.1393H7.10613V13.1626L6.98559 13.2032V13.2233H6.92578V13.2438L6.84557 13.2639V13.2839H6.80523V13.3026H6.76907V13.3226L6.64852 13.3632V13.3833H6.58871V13.4034L6.5085 13.4234V13.4426H6.44452V13.4626H6.40465V13.4827L6.32443 13.5032V13.5233H6.26416V13.5434H6.22429V13.5639L6.14408 13.584V13.604H6.08381V13.6241L6.0036 13.6446V13.6647H5.94332V13.6848L5.86358 13.7053V13.7254H5.8033V13.7454L5.72309 13.766V13.786H5.66282V13.8061H5.62295V13.8266H5.5636V13.8467L5.48339 13.8668V13.8868H5.42451V13.9092H5.38417V13.9293L5.26409 13.9494V13.9699H5.22375V13.99L5.12361 14.01V14.0306L5.00352 14.0506V14.0707H4.96087V14.0908L4.78051 14.1313V14.1514H4.74064V14.1719H4.68269V14.1892H4.62241V14.2093H4.56214V14.2298H4.50186V14.2499H4.42166V14.2699H4.34145V14.2905H4.28164V14.3105H4.22136V14.3306H4.16109V14.3507L4.022 14.3712V14.3913L3.88291 14.4113V14.4319L3.72249 14.4519V14.472H3.64228V14.4925H3.56207V14.5159H3.48186V14.5359H3.40211V14.556H3.3015V14.5765L2.75811 14.6559H2.45721C2.07888 14.6559 1.86514 14.6204 1.63518 14.4739L1.55543 14.4538L1.49516 14.3731H1.45482C1.44833 14.3595 1.44184 14.346 1.43489 14.3325L1.3148 14.2317V14.1892L1.23459 14.1285V14.088L1.19426 14.0679V14.0278L1.15438 14.0072C1.14789 13.9806 1.14094 13.9536 1.13444 13.9265L1.09411 13.9064C1.08066 13.8658 1.06768 13.8252 1.05424 13.7851L1.0139 13.765V13.7244H0.993963C0.987472 13.6974 0.980518 13.6708 0.974027 13.6437H0.95409V13.583H0.93369V13.5424H0.913754V13.5023H0.893818C0.880372 13.4617 0.866925 13.4211 0.853943 13.381H0.834471C0.82798 13.3404 0.821489 13.3003 0.814534 13.2597H0.794598V13.2191H0.774662L0.734325 13.0375H0.714386V12.9769H0.695378V12.9162H0.675442V12.8555H0.655042V12.7949H0.635106C0.628615 12.7482 0.62166 12.7015 0.61517 12.6549H0.595233V12.5746H0.574833V12.5139H0.554894V12.4328H0.534958V12.3726H0.515022V12.2713H0.494621V12.1906H0.474685V12.1098H0.454749V12.0286H0.434813C0.427858 11.9614 0.421367 11.8942 0.414877 11.8266H0.394476C0.401431 11.8065 0.407922 11.7864 0.414877 11.7659H0.394476V11.6651H0.37454V11.5639H0.354604C0.347649 11.4901 0.341156 11.4159 0.334665 11.3417H0.314267V11.2204C0.281813 11.1112 0.267902 10.946 0.23452 10.8364V10.6749H0.214119V10.5349H0.194183V10.373H0.174247L0.133911 9.82746H0.113974V9.6254H0.0926459V9.38275H0.0727097V9.09996H0.0523094C0.0458185 8.93134 0.0391733 8.76304 0.0323732 8.59505V8.37245C-0.0260455 8.16153 0.012437 7.71915 0.012437 7.46343V6.69393C0.012437 6.5614 0.00409117 6.38967 0.0323732 6.28981C0.0671463 6.16755 0.0212455 5.97529 0.0523094 5.86516V5.54224H0.0727097V5.27952H0.0926459V5.03686H0.112582V4.8348C0.173783 4.62201 0.15292 4.33689 0.21273 4.12737C0.219685 4.02657 0.226176 3.92531 0.23313 3.82451H0.253067V3.70318H0.273003V3.56319H0.292939V3.44186C0.362485 3.21134 0.392622 2.87955 0.432031 2.73442V2.63363H0.451967V2.55103H0.471903V2.4703H0.49184V2.36951H0.51224V2.28971H0.532176C0.545622 2.21551 0.559069 2.14132 0.572051 2.06712H0.592452C0.605434 1.99992 0.618878 1.93226 0.632324 1.86506H0.65226V1.8044H0.67266V1.74373H0.695378V1.68307H0.715315V1.6224H0.735251L0.775587 1.44088H0.795523V1.40028H0.815462V1.33962H0.834471V1.29948H0.854871V1.23882H0.874807C0.888253 1.19822 0.901234 1.15762 0.914679 1.11749H0.934616V1.07643H0.955016V1.0363H0.973563L0.993499 0.935033L1.03384 0.914967V0.874369H1.05377V0.834237L1.09365 0.793639V0.75304L1.13398 0.732975C1.14047 0.705909 1.14743 0.67931 1.15392 0.652244H1.17386L1.19379 0.591579L1.23413 0.571514V0.530916L1.33428 0.450185V0.409587L1.4372 0.329791C1.44416 0.316258 1.45065 0.302726 1.45714 0.289193H1.49748C1.51092 0.269127 1.52437 0.24906 1.53735 0.228528H1.5763L1.59623 0.188397H1.6361L1.6565 0.147799H1.69638V0.127733H1.75665V0.107667H1.79652V0.0871339L2.13684 0.00313799Z" fill="#0072CE"/>
<path d="M10.0767 8.72918C9.90699 8.94431 9.49204 9.09783 9.49204 9.09783L6.40558 10.2136V9.38855L8.67742 8.57379C8.93521 8.48046 8.97508 8.34933 8.76551 8.28027C8.55595 8.2112 8.17762 8.2336 7.91983 8.32693L6.40605 8.86358V8.00681L6.49321 7.97741C6.83537 7.86615 7.18808 7.79093 7.54568 7.75296C8.16046 7.68483 8.91388 7.76229 9.50502 7.98628C10.1708 8.19954 10.2464 8.51219 10.0767 8.72918ZM6.69953 7.32924V5.22466C6.69953 4.97781 6.65317 4.75008 6.42135 4.68569C6.2447 4.62876 6.13528 4.79395 6.13528 5.0408V10.3074L4.72303 9.85614V3.57227C5.32577 3.68426 6.19834 3.94978 6.67032 4.10938C7.86605 4.52236 8.27174 5.03661 8.27174 6.19576C8.27266 7.32551 7.57952 7.75342 6.69953 7.32551V7.32924ZM2.13268 9.30223C1.44834 9.10857 1.33475 8.70445 1.64632 8.47206C1.9347 8.25693 2.42477 8.09547 2.42477 8.09547L4.45088 7.37077V8.19674L2.99366 8.72172C2.73634 8.81505 2.69693 8.94617 2.90603 9.01524C3.11513 9.0843 3.49392 9.0647 3.75171 8.97137L4.45088 8.71611V9.45528C4.40451 9.46322 4.35815 9.47115 4.31178 9.47862C3.58193 9.59795 2.8342 9.53743 2.13268 9.30223Z" fill="white"/>
</svg>
