<svg width="228" height="41" viewBox="0 0 228 41" fill="none" xmlns="http://www.w3.org/2000/svg">
<path d="M153.481 0.133301C146.655 0.133301 140.568 3.08596 136.611 7.69684C135.443 6.19403 134.015 4.61548 132.455 3.50427C129.18 1.05586 124.934 0.310784 120.397 0.188416C112.716 -0.0187447 106.572 4.13756 103.743 8.81067C101.353 4.03487 99.2085 1.54097 90.8928 1.12665H70.7415L70.746 9.5387C70.746 9.5387 71.7043 9.84522 72.0283 10.2014C72.2986 10.4985 72.4788 11.319 72.4788 11.319L72.4314 30.0427C72.4314 30.0427 71.9044 29.6599 71.6943 29.4146C71.3033 28.9582 70.7486 27.8791 70.7486 27.8791L60.4237 1.11768L47.3321 1.12665L35.9566 30.9117V24.5363H27.7701C27.1255 26.3166 25.3155 27.5189 23.1324 27.5189C21.9819 27.5189 20.7519 27.2472 19.7552 26.6473C18.4563 25.8657 17.4857 24.9373 16.6864 23.2879C16.0575 21.7616 15.5762 19.8926 15.5206 18.2391C15.7122 14.969 16.7041 13.8034 18.5203 12.4547C18.9229 12.1557 20.0477 11.9166 20.372 11.915C21.0855 11.9117 21.6801 12.3451 22.0024 12.984C22.4712 13.9133 21.785 15.0389 21.1066 15.8397L27.7254 20.4066L37.9478 9.69379C34.3815 4.00092 27.8648 0.189697 20.4168 0.189697C9.14072 0.189697 0 8.92558 0 19.7016C0 30.4776 8.8482 38.6268 20.4168 39.5057L21.8795 39.5647H37.4411V39.557H73.6715V39.5545L87.2929 39.5352V39.5134H89.4237V31.4975C89.4237 31.4975 88.2822 31.259 87.8125 30.9386C87.3192 30.6022 87.2725 30.0722 87.2725 30.0722C87.2636 29.8677 87.3047 29.7111 87.412 29.5774C87.5171 29.4463 87.763 29.3572 87.856 29.3377C89.2627 29.043 90.6971 28.6398 92.1329 28.1226C95.9639 26.7426 99.1876 24.7793 101.476 22.6099C103.008 31.6721 110.959 38.285 120.572 39.3891C121.2 39.4612 121.741 39.5157 122.328 39.5365C122.484 39.542 122.796 39.5301 122.796 39.5301H136.392L136.351 32.8291C139.887 36.7603 146.775 40.5286 153.729 40.5286C159.41 40.5286 164.506 38.037 168.098 34.956L168.069 39.5904H185.237L185.325 32.5001L189.801 32.5587V32.4805L195.806 32.5331V39.5647H214.117V30.2478C214.117 30.2478 213.335 30.1976 213.029 29.9837C212.615 29.6946 212.187 28.7238 212.187 28.7238L209.613 11.6062C209.613 11.6062 209.691 10.461 210.023 10.0335C210.296 9.68169 211.193 9.38875 211.193 9.38875V1.12667H209.555H206.921H192.94V1.36123L191.652 5.69735L189.801 1.33303V1.12667H189.714L189.664 1.01003L189.66 1.12667H172.047V9.79891L170.844 8.15829C167.54 3.33364 161.74 0.133301 155.135 0.133301C154.866 0.133301 154.598 0.138148 154.332 0.148682C154.049 0.138471 153.766 0.133301 153.481 0.133301ZM35.7301 32.6061L35.7288 32.6907H35.652C35.6782 32.6627 35.704 32.6343 35.7301 32.6061H35.7301Z" fill="#0C4DA2"/>
<path d="M20.4032 3.85596C11.1079 3.91455 3.5162 10.696 3.5162 19.567C3.5162 28.4381 11.8968 36.0582 22.0412 35.8288L31.8987 35.8567V28.0839H30.0369C29.452 29.5494 26.72 30.9829 24.7392 30.9829C23.6953 30.9829 21.0675 30.8408 20.0954 30.4998C18.3791 29.8977 15.9301 29.0335 13.8008 25.4491C13.2302 24.1925 11.6235 21.1306 11.9825 16.6639C12.1563 13.9718 13.8636 10.6113 16.9273 9.08947C18.2632 8.42588 19.608 8.317 21.9692 8.53162C23.6644 8.68569 25.3489 9.87953 25.937 11.3124C26.3918 12.4205 26.2611 13.7709 25.7257 14.5401C25.6875 14.595 25.6866 14.6436 25.6945 14.696C25.7006 14.7358 25.7522 14.8023 25.7522 14.8023L26.6853 15.5323C26.6853 15.5323 26.9509 15.7172 27.2612 15.7089C27.4414 15.7041 27.7635 15.5083 27.7635 15.5083L33.0922 9.90748C29.7978 5.45536 23.9434 3.85596 20.4032 3.85596Z" fill="#FFCB08"/>
<path d="M153.568 3.70557C143.713 3.70557 135.724 11.1294 135.724 20.2874C135.724 29.4454 143.713 36.8693 153.568 36.8693C163.422 36.8693 171.411 29.4454 171.411 20.2874C171.411 11.1294 163.422 3.70557 153.568 3.70557ZM153.684 8.86072C158.757 8.86072 161.475 12.4965 162.577 16.8302C162.893 18.0707 162.765 22.1954 162.577 23.5688C162.004 27.757 158.586 31.8385 153.626 31.7128C148.793 31.5904 145.561 29.3368 144.559 23.2759C144.266 21.5029 144.261 19.373 144.499 17.5919C145.192 12.4274 148.611 8.86072 153.684 8.86072H153.684Z" fill="#FFCB08"/>
<path d="M49.7815 4.73474C49.7815 4.73474 41.9459 25.9704 40.5419 29.8376C39.1378 33.7048 37.5588 33.588 37.5588 33.588L37.6753 35.931L47.1453 35.9284L47.1529 33.6777C47.1529 33.6777 46.5453 33.6464 46.0997 33.2368C45.2355 32.4422 45.7824 30.8438 45.7824 30.8438L47.972 25.2336L57.6966 25.2541C57.6966 25.2541 59.5922 29.9944 60.0565 31.559C60.6622 33.6003 58.7703 33.6367 58.7703 33.6367V35.9246L70.746 35.9182L70.7384 33.6559C70.7384 33.6559 70.0252 33.5469 69.2667 32.8843C68.4063 32.1326 67.8206 30.5823 67.8206 30.5823L58.0127 4.75653L49.7815 4.73474ZM52.5931 11.2639L55.8397 20.3168L49.5512 20.345L52.5931 11.2639Z" fill="#FFCB08"/>
<path d="M74.5724 4.70142L74.5263 7.30463C74.5263 7.30463 75.2875 7.52308 76.0159 8.33258C76.4021 8.76177 76.1631 14.2094 76.1631 14.2094L76.1503 31.6474C76.1503 31.6474 76.3984 32.3347 75.5655 33.0253C75.2511 33.2859 74.9726 33.5623 74.4867 33.6046L74.4291 35.9246L85.5281 35.9515L85.555 33.5918C85.555 33.5918 85.1624 33.4367 84.5466 32.8804C84.199 32.5665 83.9849 32.1146 83.9899 31.6641C83.9992 30.0888 84.036 28.5751 84.0283 27.037C87.9161 26.0991 91.2724 24.5087 92.5807 24.0262C97.4984 22.0608 101.314 18.9403 101.091 13.3737C101.049 9.42977 99.0514 6.19713 94.7729 5.46661C92.8225 4.90219 91.927 4.80357 91.1576 4.76038L74.5724 4.70142ZM87.266 9.12258C88.4632 9.09955 89.8732 9.37429 90.9588 9.9219C92.3117 10.8215 93.1348 11.7534 93.1348 13.7249C93.1906 14.6517 92.9247 15.4486 92.4796 16.2589C92.0161 17.0337 90.6141 18.5211 89.7288 19.372C87.1407 21.2252 86.2145 21.7685 84.1585 22.7164L84.1255 9.50537C85.2213 9.29838 86.2041 9.12963 87.266 9.12258Z" fill="#FFCB08"/>
<path d="M121.493 3.87659C112.197 3.93518 104.606 10.7166 104.606 19.5877C104.606 28.4587 112.986 36.0789 123.131 35.8495L132.988 35.8773V28.1045H131.126C130.541 29.5701 127.809 31.0035 125.829 31.0035C124.785 31.0035 122.157 30.8614 121.185 30.5204C119.468 29.9183 117.02 29.0541 114.89 25.4697C114.32 24.2132 112.713 21.1512 113.072 16.6845C113.246 13.9925 114.953 10.6319 118.017 9.1101C119.353 8.44652 120.697 8.33763 123.059 8.55225C124.754 8.70632 126.438 9.90015 127.026 11.333C127.481 12.4412 127.35 13.7915 126.815 14.5607C126.777 14.6156 126.776 14.6642 126.784 14.7166C126.79 14.7565 126.842 14.8229 126.842 14.8229L127.775 15.553C127.775 15.553 128.04 15.7378 128.351 15.7295C128.531 15.7247 128.853 15.5289 128.853 15.5289L134.182 9.92811C130.887 5.47599 125.033 3.87659 121.493 3.87659Z" fill="#FFCB08"/>
<path d="M175.871 4.76294L175.881 6.99957C175.881 6.99957 176.857 7.26286 177.245 7.56995C177.688 7.92102 177.577 8.54407 177.577 8.54407C177.577 8.54407 174.034 30.5909 173.958 31.0001C173.875 31.4403 173.758 32.4688 173.14 33.0406C172.525 33.6092 171.817 33.7238 171.817 33.7238L171.806 35.9297H181.724V33.8687C181.724 33.8687 180.917 33.8061 180.379 33.2675C179.841 32.7289 179.997 31.2488 179.997 31.2488L182.437 14.5926L187.401 28.9276L193.448 29.0109L198.359 13.5736L201.101 31.3308C201.101 31.3308 201.431 32.6657 200.718 33.3508C200.169 33.8781 199.374 33.952 199.374 33.952V36.013H210.864L210.853 33.8071C210.853 33.8071 210.596 33.8953 209.944 33.3713C209.56 33.0632 209.375 31.689 209.292 31.2488C209.215 30.8396 206.12 8.65558 206.12 8.65558C206.12 8.65558 206.066 7.73956 206.568 7.2713C206.929 6.9338 207.669 6.61377 207.669 6.61377L207.652 4.78729L195.723 4.77319L191.358 17.3663L187.195 4.77319L175.871 4.76294Z" fill="#FFCB08"/>
<path d="M221.74 0C218.585 0 216.027 2.56178 216.027 5.72189C216.027 8.882 218.585 11.4438 221.74 11.4438C224.895 11.4438 227.453 8.882 227.453 5.72189C227.453 2.56178 224.895 0 221.74 0ZM221.74 0.769265C224.471 0.769265 226.685 2.98664 226.685 5.72189C226.685 8.45714 224.471 10.6745 221.74 10.6745C219.009 10.6745 216.795 8.45714 216.795 5.72189C216.795 2.98664 219.009 0.769265 221.74 0.769265Z" fill="#0C4DA2"/>
<path d="M218.799 2.26611V9.0401H220.226V6.69196H222.121L223.69 9.06958L225.293 9.05933L223.378 6.53943C224.164 6.21798 224.721 5.42513 224.721 4.49634C224.721 3.29888 223.796 2.32503 222.646 2.29944V2.27124H220.226V2.26611H218.799ZM220.226 3.63373L222.6 3.64655C223.082 3.72855 223.402 3.77819 223.389 4.50385C223.376 5.28037 222.779 5.38384 222.6 5.38971L220.226 5.41791V3.63373Z" fill="#0C4DA2"/>
</svg>
