<svg width="61" height="69" viewBox="0 0 61 69" fill="none" xmlns="http://www.w3.org/2000/svg">
<path d="M0 0H61V69H0V0ZM4.39436 4.39909C4.39506 21.1048 4.39436 37.8105 4.39436 54.5162C21.8155 54.5169 39.2359 54.5155 56.6571 54.5169C56.6432 51.5321 56.6508 48.5474 56.6487 45.5627C56.6258 42.3347 56.655 39.106 56.632 35.8779C56.632 25.385 56.6063 14.892 56.6056 4.39909C39.2019 4.39841 21.7981 4.39772 4.39436 4.39909ZM11.5351 58.5785C11.5303 58.9792 11.5344 59.3806 11.5323 59.7819C12.1868 59.7826 12.8413 59.7819 13.4957 59.7819C13.4957 61.8148 13.4957 63.8484 13.4957 65.8813C13.9994 65.8819 14.5024 65.8806 15.0061 65.8819C15.0082 63.8484 15.0054 61.8155 15.0075 59.7826C15.6467 59.7819 16.2866 59.7826 16.9258 59.7819C16.9258 59.3806 16.9258 58.9806 16.9258 58.5799C15.1291 58.5785 13.3318 58.5813 11.5351 58.5785ZM19.5228 58.5799C19.5235 60.2664 19.5221 61.9529 19.5235 63.6388C19.5172 64.1989 19.7326 64.7679 20.1564 65.148C20.7483 65.6916 21.5855 65.8737 22.3713 65.8819C23.1675 65.8861 24.0158 65.7218 24.6348 65.1954C25.0913 64.816 25.3275 64.2236 25.3226 63.6408C25.3268 61.9536 25.3219 60.2671 25.3247 58.5806C24.8273 58.5778 24.3298 58.5813 23.8324 58.5785C23.8268 60.1056 23.831 61.632 23.8303 63.1591C23.8359 63.4773 23.8414 63.8181 23.6719 64.102C23.4683 64.4635 23.0487 64.6463 22.6471 64.6848C22.2365 64.7226 21.7884 64.6834 21.4452 64.4367C21.1492 64.2236 21.0165 63.8518 21.0172 63.5006C21.0158 61.8608 21.0172 60.2204 21.0165 58.5806C20.5184 58.5785 20.0202 58.5792 19.5228 58.5799ZM28.6248 58.5792C28.6235 61.0135 28.6235 63.4477 28.6248 65.8819C29.4592 65.8806 30.2937 65.8813 31.1281 65.8819C32.132 65.8923 33.1991 65.6174 33.9127 64.8813C34.6748 64.1033 34.9069 62.9659 34.8492 61.9165C34.8124 60.9839 34.4831 60.0149 33.7459 59.3977C32.9921 58.7517 31.9569 58.562 30.9863 58.5792C30.1992 58.5799 29.412 58.5799 28.6248 58.5792ZM37.7519 58.5792C37.7505 61.0135 37.7512 63.4477 37.7519 65.8819C38.2535 65.8826 38.7558 65.8785 39.2575 65.884C39.27 63.4498 39.2595 61.0148 39.263 58.5799C38.7593 58.5785 38.2556 58.5799 37.7519 58.5792ZM5.07106 59.1675C4.25958 59.8211 4.18177 61.1887 4.94114 61.9103C5.50667 62.4787 6.30495 62.6904 7.01153 63.0257C7.36655 63.1934 7.76326 63.4731 7.74589 63.9095C7.76534 64.3178 7.39364 64.6167 7.01361 64.6703C6.2188 64.8002 5.40385 64.6202 4.66046 64.3404C4.56736 64.7342 4.48538 65.1308 4.39575 65.5253C5.10232 65.7679 5.85197 65.8792 6.59884 65.8819C7.28318 65.8758 8.00086 65.7184 8.54 65.2799C9.43068 64.5727 9.45014 63.0409 8.56015 62.3254C7.93208 61.7983 7.1081 61.6162 6.40361 61.2224C6.10695 61.0643 5.83252 60.7709 5.88949 60.4121C5.90755 60.0486 6.26674 59.8273 6.59953 59.7819C7.254 59.6878 7.92792 59.795 8.55042 60.0046C8.63379 59.6135 8.72689 59.2245 8.79776 58.8314C8.17595 58.6486 7.52426 58.5772 6.87674 58.5806C6.23687 58.593 5.57129 58.7552 5.07106 59.1675ZM44.7787 58.6692C44.0263 58.8232 43.3392 59.2706 42.9182 59.909C42.3637 60.7379 42.222 61.7742 42.3088 62.7474C42.3901 63.6704 42.7688 64.6085 43.5129 65.2009C44.3146 65.8455 45.4235 65.994 46.417 65.8091C47.2354 65.662 47.985 65.1686 48.4158 64.4621C48.966 63.5707 49.0703 62.4739 48.9299 61.4567C48.8028 60.5633 48.3755 59.6733 47.612 59.1469C46.7991 58.5806 45.734 58.4761 44.7787 58.6692ZM53.0756 58.8294C52.592 59.0294 52.1696 59.406 51.9876 59.9001C51.7639 60.5138 51.8208 61.2616 52.2585 61.7722C52.7178 62.3124 53.3979 62.5859 54.0434 62.8409C54.3796 62.9859 54.7346 63.1281 54.9924 63.3962C55.2557 63.6711 55.2592 64.1597 54.9771 64.4236C54.7673 64.6229 54.4658 64.6848 54.1851 64.7081C53.4737 64.748 52.7629 64.592 52.1015 64.3418C52.0147 64.7363 51.9264 65.1315 51.8396 65.5266C52.7254 65.818 53.6793 65.9534 54.6089 65.8393C55.2133 65.7541 55.8254 65.5122 56.227 65.0408C56.6939 64.4923 56.7627 63.6876 56.5223 63.0285C56.3208 62.4986 55.8331 62.1488 55.3412 61.9021C54.7854 61.6086 54.1538 61.4588 53.6432 61.0849C53.3403 60.8808 53.2291 60.4444 53.425 60.1331C53.6057 59.8568 53.9593 59.7778 54.2685 59.753C54.8528 59.7235 55.4426 59.8128 55.9943 60.0046C56.0797 59.6149 56.1652 59.2252 56.2451 58.8349C55.8226 58.7084 55.3863 58.6321 54.9466 58.6026C54.3171 58.5497 53.6619 58.5765 53.0756 58.8294ZM59.8988 64.5803C59.7661 64.9418 59.6466 65.3074 59.5215 65.6716C59.3979 65.3081 59.2749 64.9445 59.1471 64.583C59.0873 64.5837 58.9671 64.5844 58.9067 64.5851C58.9067 65.0167 58.9074 65.449 58.9067 65.8813C58.9505 65.8813 59.038 65.8813 59.0811 65.8813C59.0811 65.5376 59.0811 65.1947 59.0804 64.8518C59.1999 65.194 59.3117 65.539 59.4326 65.8813C59.4778 65.8813 59.5667 65.8819 59.6112 65.8819C59.7209 65.5431 59.8529 65.2105 59.9398 64.8648C59.9718 65.2036 59.9502 65.5438 59.9599 65.8833C60.0051 65.8826 60.0947 65.8813 60.1399 65.8799C60.1399 65.4483 60.1399 65.0167 60.1399 64.5851C60.0586 64.5824 59.978 64.581 59.8988 64.5803ZM57.7173 64.5844C57.7173 64.6222 57.7159 64.6992 57.7159 64.7377C57.8576 64.7384 58 64.7391 58.1425 64.7397C58.1425 65.1198 58.1425 65.5005 58.1425 65.8806C58.1883 65.8806 58.2793 65.8806 58.3252 65.8806C58.3252 65.5005 58.3259 65.1205 58.3245 64.7404C58.4662 64.7391 58.6072 64.7384 58.7504 64.739C58.7504 64.7006 58.7504 64.6222 58.7504 64.5837C58.4058 64.5844 58.0612 64.5837 57.7173 64.5844Z" fill="white"/>
<path d="M25.5582 14.4186C27.4285 14.7711 29.2668 15.2673 31.094 15.7917C32.2543 16.1305 33.411 16.4824 34.5553 16.8693C35.8886 17.3325 37.2079 17.8782 38.3793 18.6699C39.3221 19.3056 40.144 20.1379 40.6789 21.1412C41.4091 22.4951 41.6273 24.0511 41.6717 25.5665C41.7176 27.0042 41.5884 28.5024 40.9019 29.7958C40.4135 30.7353 39.5506 31.5036 38.505 31.771C37.1614 32.127 35.7427 31.7682 34.5206 31.1847C34.5213 27.9828 34.5213 24.7802 34.5199 21.5777C34.5032 21.0299 34.44 20.4512 34.1294 19.9825C33.8967 19.6252 33.4916 19.4018 33.0727 19.34C32.7837 19.296 32.4905 19.4403 32.3251 19.6726C32.0229 20.0808 31.9777 20.6079 31.9764 21.0979C31.9764 28.8982 31.9757 36.6979 31.9771 44.4982C29.8379 43.8253 27.6973 43.1553 25.5582 42.4825C25.5589 33.1276 25.5582 23.7734 25.5582 14.4186Z" fill="white"/>
<path d="M14.6601 34.7701C17.8797 33.641 21.0971 32.5049 24.3173 31.3772C24.3166 32.6087 24.3152 33.841 24.318 35.0725C22.0899 35.8642 19.8604 36.6504 17.6323 37.4422C17.3468 37.55 17.0585 37.6806 16.8389 37.8978C16.7201 38.0139 16.6347 38.2029 16.7319 38.3589C16.8618 38.5562 17.0932 38.651 17.31 38.7239C17.7768 38.8668 18.2694 38.9005 18.7551 38.9039C19.5471 38.895 20.3454 38.7905 21.0971 38.5363C22.1712 38.1541 23.2425 37.7638 24.3173 37.383C24.3152 38.4861 24.3166 39.5898 24.3159 40.6928C21.1041 41.2997 17.7504 41.1588 14.6073 40.2606C13.6076 39.9589 12.555 39.7046 11.713 39.0586C11.2482 38.7081 10.8313 38.1968 10.8272 37.592C10.8133 37.0346 11.1912 36.5515 11.6365 36.2491C12.5613 35.6079 13.6083 35.1639 14.6601 34.7701Z" fill="white"/>
<path d="M37.7853 33.1544C39.2165 32.9565 40.6699 32.9324 42.1101 33.0438C43.845 33.1833 45.5735 33.509 47.2097 34.107C48.0934 34.3977 49.0029 34.7365 49.6844 35.3894C50.0693 35.7522 50.3278 36.2952 50.1902 36.8257C50.0353 37.4312 49.5149 37.8477 49.0175 38.1844C48.3477 38.6208 47.6147 38.9583 46.8574 39.2153C42.3019 40.8331 37.7477 42.4522 33.1929 44.0693C33.1901 42.8419 33.1936 41.6138 33.1915 40.3864C36.6438 39.1651 40.0995 37.9521 43.5532 36.7329C43.8894 36.6024 44.2549 36.4539 44.4633 36.1453C44.5807 35.979 44.4939 35.7564 44.3348 35.6533C43.9881 35.4148 43.5559 35.3468 43.146 35.2966C42.0219 35.1956 40.8686 35.3351 39.8126 35.7357C37.6053 36.5034 35.3981 37.2724 33.1915 38.0415C33.1922 36.7666 33.1915 35.4918 33.1915 34.2169C34.6783 33.6987 36.2255 33.3675 37.7853 33.1544Z" fill="white"/>
<path d="M30.1352 59.7819C30.837 59.7868 31.5845 59.7249 32.2279 60.0603C32.8149 60.3434 33.1818 60.9468 33.2839 61.5715C33.3909 62.2217 33.3603 62.9165 33.081 63.5233C32.8622 63.9948 32.4391 64.3632 31.9416 64.5233C31.3622 64.7288 30.7383 64.6704 30.1352 64.6786C30.1352 63.0464 30.1352 61.4142 30.1352 59.7819Z" fill="white"/>
<path d="M45.0476 59.8362C45.634 59.6507 46.3364 59.7428 46.7963 60.1689C47.1951 60.5359 47.3897 61.0671 47.4709 61.5887C47.5599 62.2244 47.5349 62.8876 47.3209 63.4979C47.1541 63.9694 46.8172 64.4085 46.3343 64.5927C45.7153 64.8263 44.942 64.7398 44.455 64.271C44.0187 63.8594 43.8332 63.2567 43.7748 62.6787C43.7164 62.0657 43.7651 61.4293 44.0034 60.8561C44.1931 60.3963 44.5592 59.9881 45.0476 59.8362Z" fill="white"/>
</svg>
