<svg width="15" height="15" viewBox="0 0 15 15" fill="none" xmlns="http://www.w3.org/2000/svg">
<path d="M13.5 3H11.865C11.9475 2.7675 12 2.5125 12 2.25C12 1.005 10.995 0 9.75 0C8.9625 0 8.28 0.405 7.875 1.0125L7.5 1.515L7.125 1.005C6.72 0.405 6.0375 0 5.25 0C4.005 0 3 1.005 3 2.25C3 2.5125 3.0525 2.7675 3.135 3H1.5C0.6675 3 0.00749999 3.6675 0.00749999 4.5L0 12.75C0 13.5825 0.6675 14.25 1.5 14.25H13.5C14.3325 14.25 15 13.5825 15 12.75V4.5C15 3.6675 14.3325 3 13.5 3ZM9.75 1.5C10.1625 1.5 10.5 1.8375 10.5 2.25C10.5 2.6625 10.1625 3 9.75 3C9.3375 3 9 2.6625 9 2.25C9 1.8375 9.3375 1.5 9.75 1.5ZM5.25 1.5C5.6625 1.5 6 1.8375 6 2.25C6 2.6625 5.6625 3 5.25 3C4.8375 3 4.5 2.6625 4.5 2.25C4.5 1.8375 4.8375 1.5 5.25 1.5ZM13.5 12.75H1.5V11.25H13.5V12.75ZM13.5 9H1.5V4.5H5.31L3.75 6.6225L4.965 7.5L6.75 5.07L7.5 4.05L8.25 5.07L10.035 7.5L11.25 6.6225L9.69 4.5H13.5V9Z" fill="white"/>
</svg>
